<?xml version="1.0" encoding="utf-8"?>
<!-- Generator: Adobe Illustrator 16.0.0, SVG Export Plug-In . SVG Version: 6.00 Build 0)  -->
<!DOCTYPE svg PUBLIC "-//W3C//DTD SVG 1.1//EN" "http://www.w3.org/Graphics/SVG/1.1/DTD/svg11.dtd">
<svg version="1.1" id="Layer_1" xmlns="http://www.w3.org/2000/svg" xmlns:xlink="http://www.w3.org/1999/xlink" x="0px" y="0px"
	 width="80px" height="80px" viewBox="0 0 80 80" enable-background="new 0 0 80 80" xml:space="preserve">
<g id="Layer_1_1_" display="none">
	<path display="inline" fill="#B7B7B7" d="M54.996,29.282H25.001c-1.185,0-2.143,0.96-2.143,2.145c0,1.188,0.958,2.146,2.143,2.146
		h29.995c1.186,0,2.145-0.958,2.145-2.146C57.141,30.243,56.182,29.282,54.996,29.282z M50.713,42.145H29.287
		c-1.184,0-2.145,0.959-2.145,2.146c0,1.185,0.961,2.144,2.145,2.144h21.426c1.184,0,2.143-0.959,2.143-2.144
		C52.854,43.104,51.896,42.145,50.713,42.145z M40,5.704c-18.934,0-34.282,13.438-34.282,30.009c0,9.473,5.024,17.906,12.854,23.405
		v15.178l15.019-9.114c2.08,0.344,4.214,0.541,6.409,0.541c18.934,0,34.282-13.436,34.282-30.009
		C74.282,19.142,58.934,5.704,40,5.704z M40,61.436c-2.502,0-4.921-0.289-7.244-0.787l-10.087,6.065l0.137-9.94
		C15.07,52.12,10.002,44.43,10.002,35.713c0-14.203,13.432-25.72,29.998-25.72c16.564,0,29.995,11.517,29.995,25.72
		C69.995,49.922,56.564,61.436,40,61.436z"/>
</g>
<g id="Layer_2" display="none">
	<path display="inline" fill="#B7B7B7" d="M67.225,41.857c7.055-7.008,7.055-18.375,0-25.384
		c-7.051-7.004-18.492-7.001-25.543,0.003c-0.621,0.616-1.166,1.278-1.68,1.958c-0.51-0.684-1.059-1.342-1.681-1.961
		c-7.05-7.004-18.495-7.001-25.542,0.003c-7.059,7.01-7.056,18.373-0.006,25.377l27.101,26.924L67.225,41.857z"/>
</g>
<g id="Layer_3">
	<path fill="#E75C73" d="M67.225,41.857c7.055-7.008,7.055-18.375,0-25.384c-7.051-7.004-18.492-7.001-25.543,0.003
		c-0.621,0.616-1.166,1.278-1.68,1.958c-0.51-0.684-1.059-1.342-1.681-1.961c-7.05-7.004-18.495-7.001-25.542,0.003
		c-7.059,7.01-7.056,18.373-0.006,25.377l27.101,26.924L67.225,41.857z"/>
</g>
</svg>
