<?xml version="1.0" encoding="utf-8"?>
<!-- Generator: Adobe Illustrator 16.0.0, SVG Export Plug-In . SVG Version: 6.00 Build 0)  -->
<!DOCTYPE svg PUBLIC "-//W3C//DTD SVG 1.1//EN" "http://www.w3.org/Graphics/SVG/1.1/DTD/svg11.dtd">
<svg version="1.1" id="Layer_1" xmlns="http://www.w3.org/2000/svg" xmlns:xlink="http://www.w3.org/1999/xlink" x="0px" y="0px"
	 width="80px" height="80px" viewBox="0 0 80 80" enable-background="new 0 0 80 80" xml:space="preserve">
<g id="Layer_1_1_" display="none">
	<path display="inline" fill="#FFFFFF" d="M40.031,75.688l5.606-5.609L19.501,43.965h56.187v-7.93H19.501L45.637,9.923l-5.606-5.611
		L4.313,40L40.031,75.688z"/>
</g>
<g id="Layer_2" display="none">
	<path display="inline" fill="#FFFFFF" d="M55.041,49.954c4.053-4.942,6.259-11.09,6.259-17.546
		c0-15.243-12.329-27.642-27.483-27.642S6.334,17.165,6.334,32.408c0,15.242,12.329,27.642,27.483,27.642
		c4.995,0,9.826-1.351,14.083-3.92l19.104,19.104l6.661-6.658L55.041,49.954z M48.502,50.073l-0.025-0.026l-1.621,1.145
		c-3.847,2.717-8.354,4.15-13.039,4.15c-12.558,0-22.774-10.287-22.774-22.934c0-12.646,10.216-22.934,22.774-22.934
		c12.557,0,22.775,10.288,22.775,22.934c0,6.005-2.301,11.688-6.479,16L48.502,50.073z"/>
</g>
<g id="Layer_3" display="none">
	<g display="inline">
		<path fill="#FFFFFF" d="M57.479,5.725L6.413,56.08L5.234,74.275L23.319,73.5l51.447-50.729L57.479,5.725z M70.777,22.771
			l-4.596,4.532L52.881,14.189l4.598-4.532L70.777,22.771z M63.4,30.045L25.863,67.059L12.564,53.947l37.538-37.015L63.4,30.045z
			 M8.23,71.344l0.908-14.02l0.645-0.637L23.082,69.8l-0.96,0.947L8.23,71.344z"/>
		<rect x="36.598" y="70.111" fill="#FFFFFF" width="37.357" height="3.879"/>
	</g>
</g>
<g id="Layer_4" display="none">
	<path display="inline" fill="#FFFFFF" d="M54.895,29.355h-29.79c-1.176,0-2.127,0.955-2.127,2.131c0,1.176,0.951,2.129,2.127,2.129
		h29.79c1.176,0,2.129-0.953,2.129-2.129C57.023,30.31,56.07,29.355,54.895,29.355z M50.639,42.127H29.36
		c-1.174,0-2.127,0.955-2.127,2.131s0.953,2.127,2.127,2.127h21.279c1.176,0,2.129-0.951,2.129-2.127S51.814,42.127,50.639,42.127z
		 M40,5.941c-18.804,0-34.045,13.344-34.045,29.802c0,9.405,4.988,17.78,12.765,23.241v15.074l14.917-9.056
		c2.063,0.343,4.186,0.539,6.363,0.539c18.803,0,34.045-13.341,34.045-29.801C74.045,19.285,58.803,5.941,40,5.941z M40,61.286
		c-2.484,0-4.887-0.289-7.193-0.78L22.79,66.529l0.133-9.875c-7.68-4.618-12.714-12.256-12.714-20.911
		c0-14.107,13.338-25.544,29.791-25.544c16.451,0,29.789,11.437,29.789,25.544C69.789,49.852,56.451,61.286,40,61.286z"/>
</g>
<g id="Layer_5" display="none">
	<path display="inline" fill="#FFFFFF" d="M73,69.807c0,0.004,0,0.006,0,0.008c0,1.767-1.385,3.193-3.094,3.193H10.095
		c-1.709,0-3.094-1.429-3.094-3.193c0-0.002,0.002-0.004,0.002-0.008H7c0,0,0-11.644,8.236-15.875
		c5.212-2.678,3.208-0.502,9.606-3.242c6.398-2.736,7.916-3.691,7.916-3.691l0.059-6.309c0,0-2.396-1.894-3.141-7.832
		c-1.5,0.449-1.998-1.816-2.086-3.26c-0.079-1.393-0.867-5.745,0.961-5.353c-0.372-2.906-0.642-5.525-0.51-6.914
		c0.457-4.875,5.004-9.967,12.006-10.339c8.237,0.372,11.502,5.461,11.959,10.335c0.135,1.386-0.162,4.009-0.535,6.909
		c1.829-0.384,1.032,3.961,0.945,5.353c-0.083,1.444-0.587,3.699-2.084,3.255c-0.746,5.936-3.145,7.813-3.145,7.813l0.058,6.278
		c0,0,1.514,0.894,7.913,3.629c6.396,2.74,4.395,0.69,9.604,3.369C73,58.163,73,69.807,73,69.807L73,69.807z"/>
</g>
<g id="Layer_6">
	<path d="M74.117,47.582L43.791,74.131V58.602C5.883,49.494,5.883,5.869,5.883,5.869s13.193,30.664,37.908,30.664V21.037
		L74.117,47.582z"/>
</g>
</svg>
